<svg xmlns="http://www.w3.org/2000/svg" xmlns:xlink="http://www.w3.org/1999/xlink" version="1.1" x="0px" y="0px"
    viewBox="5 5 90 80" enable-background="new 0 0 100 100" xml:space="preserve">
    <rect x="40.986" y="86.529" fill="#000000" width="18.531" height="9.002" />
    <path fill="whitesmoke"
        d="M80.786,57.462c-0.021-0.09-0.111-0.268-0.111-0.268s-1.199-2.523-1.322-2.818  c-0.127-0.297-0.445-0.217-0.445-0.217l-4.653,1.666c-0.639,0.354-0.891,1.506-1.311,1.6c-0.205,0.045-0.471-0.281-0.967-0.172  c-0.494,0.109-0.641,0.723-0.877,0.773c-0.232,0.053-0.354-0.541-0.826-0.436c-0.479,0.105-1.065,1.575-1.065,1.575l-0.277,0.061  l-3.021-12.046l0.387-0.086c0,0,1.152,1.087,1.629,0.979c0.475-0.104,0.332-0.694,0.566-0.747c0.232-0.051,0.629,0.442,1.123,0.334  c0.495-0.109,0.597-0.518,0.8-0.563c0.426-0.096,1.137,0.847,1.869,0.897l4.919-0.456c0,0,0.322-0.063,0.313-0.385  c-0.012-0.32,0.01-3.113,0.01-3.113s0.006-0.197-0.016-0.289c-0.02-0.092-0.109-0.27-0.109-0.27s-1.199-2.522-1.322-2.819  c-0.127-0.297-0.446-0.215-0.446-0.215l-4.652,1.664c-0.639,0.354-0.891,1.509-1.313,1.601c-0.203,0.045-0.469-0.281-0.965-0.172  c-0.494,0.109-0.643,0.723-0.877,0.775c-0.232,0.051-0.354-0.543-0.826-0.438c-0.479,0.107-1.064,1.574-1.064,1.574l-0.432,0.096  l-2.97-11.842l0.367-0.08c0,0,1.152,1.084,1.63,0.977c0.475-0.104,0.332-0.693,0.566-0.744c0.232-0.051,0.627,0.441,1.123,0.332  c0.494-0.109,0.596-0.516,0.799-0.563c0.424-0.094,1.137,0.846,1.869,0.896l4.919-0.455c0,0,0.322-0.061,0.313-0.383  c-0.012-0.32,0.01-3.114,0.01-3.114s0.006-0.199-0.016-0.291c-0.02-0.092-0.109-0.268-0.109-0.268s-1.199-2.523-1.322-2.82  c-0.127-0.297-0.447-0.215-0.447-0.215l-4.651,1.664c-0.639,0.354-0.891,1.51-1.313,1.602c-0.203,0.045-0.469-0.281-0.965-0.172  c-0.496,0.107-0.643,0.723-0.877,0.775c-0.233,0.051-0.354-0.545-0.827-0.438c-0.479,0.105-1.064,1.575-1.064,1.575l-0.414,0.092  L56.503,9.683c0,0-1.156-4.151-6.251-4.151s-6.251,4.151-6.251,4.151l-5.618,22.395l-0.408-0.09c0,0-0.586-1.47-1.064-1.575  c-0.473-0.107-0.594,0.488-0.827,0.438c-0.234-0.053-0.383-0.668-0.877-0.775c-0.496-0.109-0.762,0.217-0.967,0.172  c-0.42-0.092-0.672-1.248-1.311-1.602l-4.653-1.664c0,0-0.318-0.082-0.445,0.215c-0.123,0.297-1.322,2.82-1.322,2.82  s-0.09,0.176-0.109,0.268c-0.021,0.092-0.016,0.291-0.016,0.291s0.021,2.794,0.01,3.114c-0.01,0.322,0.313,0.383,0.313,0.383  l4.919,0.455c0.732-0.051,1.443-0.99,1.869-0.896c0.201,0.047,0.303,0.453,0.799,0.563s0.889-0.383,1.123-0.332  s0.092,0.641,0.566,0.744c0.478,0.107,1.63-0.977,1.63-0.977l0.361,0.08l-2.97,11.84l-0.426-0.094c0,0-0.586-1.467-1.064-1.574  c-0.473-0.105-0.594,0.488-0.826,0.438c-0.234-0.053-0.383-0.666-0.877-0.775c-0.496-0.109-0.762,0.217-0.967,0.172  c-0.423-0.092-0.673-1.246-1.312-1.601l-4.653-1.664c0,0-0.318-0.082-0.445,0.215c-0.123,0.297-1.322,2.819-1.322,2.819  s-0.09,0.178-0.109,0.27c-0.021,0.092-0.016,0.289-0.016,0.289s0.021,2.793,0.01,3.113c-0.01,0.322,0.313,0.385,0.313,0.385  l4.919,0.456c0.732-0.051,1.443-0.993,1.867-0.897c0.203,0.045,0.305,0.453,0.802,0.563c0.494,0.108,0.889-0.385,1.123-0.334  c0.234,0.053,0.092,0.644,0.566,0.747c0.477,0.107,1.629-0.979,1.629-0.979l0.381,0.084l-3.021,12.046l-0.271-0.059  c0,0-0.586-1.47-1.065-1.575c-0.473-0.105-0.594,0.488-0.826,0.436c-0.236-0.051-0.383-0.664-0.877-0.773  c-0.496-0.109-0.762,0.217-0.967,0.172c-0.42-0.094-0.672-1.246-1.311-1.6l-4.653-1.666c0,0-0.318-0.08-0.445,0.217  c-0.125,0.295-1.322,2.818-1.322,2.818s-0.09,0.178-0.111,0.268c-0.02,0.092-0.014,0.293-0.014,0.293s0.021,2.792,0.01,3.112  c-0.01,0.322,0.313,0.385,0.313,0.385l4.919,0.453c0.732-0.051,1.443-0.988,1.867-0.896c0.203,0.047,0.305,0.453,0.801,0.563  c0.494,0.111,0.889-0.385,1.123-0.332c0.232,0.053,0.092,0.641,0.566,0.746c0.477,0.105,1.628-0.98,1.628-0.98l0.227,0.051  l-1.942,7.743c10.748,6.528,11.766,14.317,11.766,14.317v0.922h18.531v-0.922c0,0,1.016-7.789,11.766-14.317l-1.944-7.741  l0.232-0.053c0,0,1.153,1.086,1.63,0.98c0.475-0.105,0.332-0.693,0.566-0.746s0.627,0.443,1.123,0.332  c0.496-0.109,0.598-0.516,0.799-0.563c0.426-0.092,1.137,0.846,1.869,0.896l4.919-0.453c0,0,0.322-0.063,0.313-0.385  c-0.012-0.32,0.01-3.112,0.01-3.112S80.806,57.554,80.786,57.462z M58.028,31.278c1.149,0,2.081,0.934,2.081,2.082  s-0.932,2.078-2.081,2.078c-1.146,0-2.082-0.93-2.082-2.078S56.882,31.278,58.028,31.278z M42.7,31.278  c1.146,0,2.082,0.934,2.082,2.082s-0.936,2.078-2.082,2.078c-1.149,0-2.083-0.93-2.083-2.078S41.551,31.278,42.7,31.278z   M36.024,62.729c-1.148,0-2.08-0.932-2.08-2.082c0-1.148,0.932-2.079,2.08-2.079c1.147,0,2.083,0.931,2.083,2.079  C38.107,61.797,37.172,62.729,36.024,62.729z M37.102,46.888c0-1.148,0.93-2.08,2.08-2.08c1.146,0,2.08,0.932,2.08,2.08  c0,1.151-0.934,2.081-2.08,2.081C38.031,48.969,37.102,48.039,37.102,46.888z M58.435,81.409H41.907  c0.406-4.77-2.073-9.972-2.073-9.972s4.161-23.07,10.336-24.769c6.177,1.698,10.338,24.769,10.338,24.769  S58.028,76.64,58.435,81.409z M61.547,48.969c-1.146,0-2.08-0.93-2.08-2.081c0-1.148,0.934-2.08,2.08-2.08  c1.15,0,2.08,0.932,2.08,2.08C63.627,48.039,62.697,48.969,61.547,48.969z M64.702,62.729c-1.147,0-2.083-0.932-2.083-2.082  c0-1.148,0.936-2.079,2.083-2.079c1.148,0,2.082,0.931,2.082,2.079C66.784,61.797,65.851,62.729,64.702,62.729z" />
</svg>