<svg xmlns="http://www.w3.org/2000/svg" viewBox="9.5 9.5 81 81" x="0px" y="0px">
    <defs>
        <style>
            .cls-1 {
                fill: none;
            }
        </style>
    </defs>
    <title>flying v_fill</title>
    <g data-name="Livello 2">
        <g fill="white">
            <rect class="cls-1" width="100" height="100" />
            <path
                d="M40,90.3H60A20.58,20.58,0,0,1,72.38,75.52,3,3,0,0,0,74,71.92l-17.29-57C55.84,12,53.84,9.7,50,9.7S44.18,12,43.29,14.89L26,71.92a3,3,0,0,0,1.63,3.6A20.58,20.58,0,0,1,40,90.3Z" />
            <path
                d="M33.18,36.1l-.91,3.68a.11.11,0,0,1-.11.08l-6.62-.27a.11.11,0,0,1-.11-.12l.14-3.28a.11.11,0,0,1,0,0l1.4-3a.11.11,0,0,1,.15-.05l6,2.84A.11.11,0,0,1,33.18,36.1Z" />
            <path d="M36,39.76a1,1,0,0,1-.24,0l-3.31-.82A1,1,0,1,1,33,37l3.31.82a1,1,0,0,1-.24,2Z" />
            <path
                d="M29.06,49.7l-.91,3.68a.11.11,0,0,1-.11.08l-6.62-.27a.11.11,0,0,1-.11-.12l.14-3.28a.11.11,0,0,1,0,0l1.4-3a.11.11,0,0,1,.15-.05l6,2.84A.11.11,0,0,1,29.06,49.7Z" />
            <path d="M31.92,53.35a1,1,0,0,1-.24,0l-3.31-.82a1,1,0,1,1,.48-1.94l3.31.82a1,1,0,0,1-.24,2Z" />
            <path
                d="M24.75,63.92l-.91,3.68a.11.11,0,0,1-.11.08l-6.62-.27A.11.11,0,0,1,17,67.3L17.14,64a.11.11,0,0,1,0,0l1.4-3a.11.11,0,0,1,.15-.05l6,2.84A.11.11,0,0,1,24.75,63.92Z" />
            <path d="M27.61,67.58a1,1,0,0,1-.24,0l-3.31-.82a1,1,0,0,1,.48-1.94l3.31.82a1,1,0,0,1-.24,2Z" />
            <path
                d="M66.82,36.1l.91,3.68a.11.11,0,0,0,.11.08l6.62-.27a.11.11,0,0,0,.11-.12l-.14-3.28a.11.11,0,0,0,0,0l-1.4-3a.11.11,0,0,0-.15-.05l-6,2.84A.11.11,0,0,0,66.82,36.1Z" />
            <path d="M64,39.76a1,1,0,0,1-.24-2L67,37a1,1,0,1,1,.48,1.94l-3.31.82A1,1,0,0,1,64,39.76Z" />
            <path
                d="M70.94,49.7l.91,3.68a.11.11,0,0,0,.11.08l6.62-.27a.11.11,0,0,0,.11-.12l-.14-3.28a.11.11,0,0,0,0,0l-1.4-3a.11.11,0,0,0-.15-.05l-6,2.84A.11.11,0,0,0,70.94,49.7Z" />
            <path d="M68.08,53.35a1,1,0,0,1-.24-2l3.31-.82a1,1,0,1,1,.48,1.94l-3.31.82A1,1,0,0,1,68.08,53.35Z" />
            <path
                d="M75.25,63.92l.91,3.68a.11.11,0,0,0,.11.08l6.62-.27A.11.11,0,0,0,83,67.3L82.86,64a.11.11,0,0,0,0,0l-1.4-3a.11.11,0,0,0-.15-.05l-6,2.84A.11.11,0,0,0,75.25,63.92Z" />
            <path d="M72.39,67.58a1,1,0,0,1-.24-2l3.31-.82a1,1,0,0,1,.48,1.94l-3.31.82A1,1,0,0,1,72.39,67.58Z" />
        </g>
    </g>
</svg>