<svg xmlns="http://www.w3.org/2000/svg" viewBox="12 12 80 80" x="0px" y="0px">
    <defs>
        <style>
            .cls-1 {
                fill: none;
            }
        </style>
    </defs>
    <title>les paul_fill</title>
    <g>
        <g fill="whitesmoke">
            <rect class="cls-1" width="100" height="100" />
            <path
                d="M60.78,86.81a.11.11,0,0,0,.11-.11V84.37c0-5.59,5.24-11.56,8.39-12.2a.53.53,0,0,0,.41-.63c-4.17-19.69-.1-48.52.55-54a.55.55,0,0,0-.73-.58,11,11,0,0,1-6.1.31c-3.85-.92-6.71-6.27-13.14-3a.58.58,0,0,1-.51,0c-6.44-3.26-9.29,2.1-13.14,3a11,11,0,0,1-6.1-.31.55.55,0,0,0-.73.58c.64,5.5,4.71,34.33.55,54a.53.53,0,0,0,.41.63c3.14.65,8.39,6.62,8.39,12.2V86.7a.11.11,0,0,0,.11.11Z" />
            <path
                d="M72.13,33.2V29.42a.11.11,0,0,1,.09-.11L78.71,28a.11.11,0,0,1,.13.09l.65,3.21a.11.11,0,0,1,0,0l-.65,3.21a.11.11,0,0,1-.13.09l-6.49-1.32A.11.11,0,0,1,72.13,33.2Z" />
            <path d="M72.13,32.31H68.72a1,1,0,0,1,0-2h3.41a1,1,0,0,1,0,2Z" />
            <path
                d="M72.13,49.58V45.79a.11.11,0,0,1,.09-.11l6.49-1.32a.11.11,0,0,1,.13.09l.65,3.21a.11.11,0,0,1,0,0l-.65,3.21a.11.11,0,0,1-.13.09l-6.49-1.32A.11.11,0,0,1,72.13,49.58Z" />
            <path d="M72.13,48.69H67.85a1,1,0,0,1,0-2h4.28a1,1,0,0,1,0,2Z" />
            <path
                d="M72.13,66.55V62.77a.11.11,0,0,1,.09-.11l6.49-1.32a.11.11,0,0,1,.13.09l.65,3.21a.11.11,0,0,1,0,0l-.65,3.21a.11.11,0,0,1-.13.09l-6.49-1.32A.11.11,0,0,1,72.13,66.55Z" />
            <path d="M72.13,65.66H68.59a1,1,0,0,1,0-2h3.55a1,1,0,1,1,0,2Z" />
            <path
                d="M27.87,33.2V29.42a.11.11,0,0,0-.09-.11L21.29,28a.11.11,0,0,0-.13.09l-.65,3.21a.11.11,0,0,0,0,0l.65,3.21a.11.11,0,0,0,.13.09l6.49-1.32A.11.11,0,0,0,27.87,33.2Z" />
            <path d="M31.28,32.31H27.87a1,1,0,0,1,0-2h3.41a1,1,0,0,1,0,2Z" />
            <path
                d="M27.87,49.58V45.79a.11.11,0,0,0-.09-.11l-6.49-1.32a.11.11,0,0,0-.13.09l-.65,3.21a.11.11,0,0,0,0,0l.65,3.21a.11.11,0,0,0,.13.09l6.49-1.32A.11.11,0,0,0,27.87,49.58Z" />
            <path d="M32.15,48.69H27.87a1,1,0,0,1,0-2h4.28a1,1,0,1,1,0,2Z" />
            <path
                d="M27.87,66.55V62.77a.11.11,0,0,0-.09-.11l-6.49-1.32a.11.11,0,0,0-.13.09l-.65,3.21a.11.11,0,0,0,0,0l.65,3.21a.11.11,0,0,0,.13.09l6.49-1.32A.11.11,0,0,0,27.87,66.55Z" />
            <path d="M31.41,65.66H27.87a1,1,0,0,1,0-2h3.55a1,1,0,0,1,0,2Z" />
        </g>
    </g>
</svg>